<svg viewBox="0 0 85 21" fill="none" xmlns="http://www.w3.org/2000/svg">
<path d="M4.21344 20.7821C3.6624 20.7821 3.21216 20.6141 2.86272 20.2781C2.52672 19.9421 2.35872 19.4717 2.35872 18.8669V14.5526C2.35872 13.9613 2.17056 13.5178 1.79424 13.2221C1.43136 12.913 0.96768 12.7584 0.4032 12.7584V10.6819C0.96768 10.6819 1.43136 10.5341 1.79424 10.2384C2.17056 9.92928 2.35872 9.48576 2.35872 8.90784V4.5936C2.35872 3.9888 2.52672 3.5184 2.86272 3.1824C3.21216 2.8464 3.6624 2.6784 4.21344 2.6784H6.2496V4.53312H4.71744V9.06912C4.71744 9.39168 4.66368 9.7008 4.55616 9.99648C4.44864 10.2787 4.3008 10.5341 4.11264 10.7626C3.92448 10.991 3.70272 11.1859 3.44736 11.3472C3.20544 11.495 2.94336 11.5958 2.66112 11.6496V11.8109C2.94336 11.8646 3.20544 11.9722 3.44736 12.1334C3.70272 12.2813 3.92448 12.4694 4.11264 12.6979C4.3008 12.9264 4.44864 13.1885 4.55616 13.4842C4.66368 13.7664 4.71744 14.0688 4.71744 14.3914V18.9274H6.2496V20.7821H4.21344Z" fill="#F4F4F4"/>
<path d="M14.2363 15.6801H12.4622V6.29893H16.6958C17.1259 6.29893 17.5111 6.36613 17.8516 6.50053C18.1921 6.63493 18.4788 6.83205 18.7118 7.09189C18.9537 7.34277 19.1374 7.64741 19.2628 8.00581C19.3972 8.36421 19.4644 8.76293 19.4644 9.20197C19.4644 9.84709 19.3166 10.4026 19.0209 10.8685C18.7342 11.3345 18.2996 11.666 17.7172 11.8631L19.6391 15.6801H17.6635L15.9163 12.0647H14.2363V15.6801ZM16.5211 10.5729C16.8615 10.5729 17.1303 10.4833 17.3275 10.3041C17.5246 10.1159 17.6231 9.85157 17.6231 9.51109V8.89285C17.6231 8.55237 17.5246 8.29253 17.3275 8.11333C17.1303 7.93413 16.8615 7.84453 16.5211 7.84453H14.2363V10.5729H16.5211ZM25.6073 14.5108H25.5401C25.4774 14.69 25.3923 14.8602 25.2848 15.0215C25.1862 15.1738 25.0563 15.3127 24.895 15.4381C24.7427 15.5636 24.5545 15.6621 24.3305 15.7338C24.1155 15.8055 23.8646 15.8413 23.5779 15.8413C22.8521 15.8413 22.2966 15.6039 21.9113 15.129C21.5261 14.6541 21.3334 13.9777 21.3334 13.0996V8.66437H23.0537V12.9249C23.0537 13.4087 23.1478 13.7805 23.336 14.0404C23.5241 14.2913 23.8243 14.4167 24.2365 14.4167C24.4067 14.4167 24.5725 14.3943 24.7337 14.3495C24.904 14.3047 25.0518 14.2375 25.1773 14.1479C25.3027 14.0493 25.4057 13.9329 25.4864 13.7985C25.567 13.6551 25.6073 13.4893 25.6073 13.3012V8.66437H27.3277V15.6801H25.6073V14.5108ZM29.4497 8.66437H31.17V9.82021H31.2238C31.3492 9.41701 31.5867 9.09893 31.9361 8.86597C32.2856 8.62405 32.6932 8.50309 33.1592 8.50309C34.0552 8.50309 34.7361 8.82117 35.202 9.45733C35.6769 10.0845 35.9144 10.985 35.9144 12.1588C35.9144 13.3415 35.6769 14.2509 35.202 14.8871C34.7361 15.5233 34.0552 15.8413 33.1592 15.8413C32.6932 15.8413 32.2856 15.7204 31.9361 15.4785C31.5956 15.2365 31.3582 14.914 31.2238 14.5108H31.17V18.3681H29.4497V8.66437ZM32.6081 14.4167C33.0561 14.4167 33.419 14.2689 33.6968 13.9732C33.9745 13.6775 34.1134 13.2788 34.1134 12.777V11.5674C34.1134 11.0657 33.9745 10.6669 33.6968 10.3713C33.419 10.0666 33.0561 9.91429 32.6081 9.91429C32.196 9.91429 31.851 10.0173 31.5732 10.2234C31.3044 10.4295 31.17 10.7028 31.17 11.0433V13.2743C31.17 13.6417 31.3044 13.9239 31.5732 14.121C31.851 14.3181 32.196 14.4167 32.6081 14.4167ZM40.4787 15.8413C39.959 15.8413 39.4931 15.7562 39.0809 15.586C38.6777 15.4068 38.3328 15.1604 38.0461 14.8468C37.7683 14.5242 37.5533 14.1389 37.4009 13.6909C37.2486 13.234 37.1725 12.7233 37.1725 12.1588C37.1725 11.6033 37.2441 11.1015 37.3875 10.6535C37.5398 10.2055 37.7549 9.82469 38.0326 9.51109C38.3104 9.18853 38.6509 8.94213 39.0541 8.77189C39.4573 8.59269 39.9142 8.50309 40.4249 8.50309C40.9715 8.50309 41.4464 8.59717 41.8496 8.78533C42.2528 8.97349 42.5843 9.22885 42.8441 9.55141C43.104 9.87397 43.2966 10.2503 43.4221 10.6804C43.5565 11.1015 43.6237 11.554 43.6237 12.0378V12.6023H38.96V12.777C38.96 13.2877 39.1033 13.6999 39.3901 14.0135C39.6768 14.3181 40.1024 14.4705 40.6669 14.4705C41.0969 14.4705 41.4464 14.3809 41.7152 14.2017C41.9929 14.0225 42.2393 13.794 42.4544 13.5162L43.3817 14.5511C43.095 14.9543 42.7008 15.2724 42.199 15.5053C41.7062 15.7293 41.1328 15.8413 40.4787 15.8413ZM40.4518 9.79333C39.9949 9.79333 39.632 9.94565 39.3632 10.2503C39.0944 10.5549 38.96 10.9492 38.96 11.433V11.5405H41.8361V11.4196C41.8361 10.9357 41.7152 10.546 41.4733 10.2503C41.2403 9.94565 40.8998 9.79333 40.4518 9.79333ZM45.2716 15.6801V8.66437H46.992V10.1159H47.0592C47.104 9.92773 47.1712 9.74853 47.2608 9.57829C47.3593 9.39909 47.4848 9.24229 47.6371 9.10789C47.7894 8.97349 47.9686 8.86597 48.1747 8.78533C48.3897 8.70469 48.6361 8.66437 48.9139 8.66437H49.2902V10.2906H48.7526C48.1702 10.2906 47.7312 10.3757 47.4355 10.546C47.1398 10.7162 46.992 10.994 46.992 11.3793V15.6801H45.2716ZM52.9255 15.6801C52.3342 15.6801 51.8817 15.5277 51.5681 15.2231C51.2634 14.9095 51.1111 14.466 51.1111 13.8925V10.0353H50.0762V8.66437H50.6138C50.8737 8.66437 51.0484 8.60613 51.138 8.48965C51.2366 8.36421 51.2858 8.18053 51.2858 7.93861V6.74245H52.8314V8.66437H54.2695V10.0353H52.8314V14.3092H54.162V15.6801H52.9255ZM65.1203 15.6801L64.3677 13.2877H61.0346L60.2954 15.6801H58.4944L61.6394 6.29893H63.8435L66.9616 15.6801H65.1203ZM62.728 7.91173H62.6608L61.4646 11.769H63.9376L62.728 7.91173ZM68.0889 15.6801V14.2554H69.3254V7.72357H68.0889V6.29893H72.3494V7.72357H71.0994V14.2554H72.3494V15.6801H68.0889Z" fill="#F4F4F4"/>
<path d="M80.0047 2.6784C80.5423 2.6784 80.9858 2.8464 81.3352 3.1824C81.6847 3.5184 81.8594 3.9888 81.8594 4.5936V8.90784C81.8594 9.48576 82.0408 9.92928 82.4037 10.2384C82.7666 10.5341 83.2303 10.6819 83.7948 10.6819V12.7584C83.2303 12.7584 82.7666 12.913 82.4037 13.2221C82.0408 13.5178 81.8594 13.9613 81.8594 14.5526V18.8669C81.8594 19.4717 81.6847 19.9421 81.3352 20.2781C80.9858 20.6141 80.5423 20.7821 80.0047 20.7821H77.9484V18.9274H79.5007V14.3712C79.5007 14.0486 79.5544 13.7462 79.662 13.464C79.7695 13.1683 79.9106 12.9062 80.0853 12.6778C80.2735 12.4493 80.4885 12.2611 80.7304 12.1133C80.9858 11.952 81.2546 11.8445 81.5368 11.7907V11.6496C81.2546 11.5958 80.9858 11.495 80.7304 11.3472C80.4885 11.1859 80.2735 10.991 80.0853 10.7626C79.9106 10.5341 79.7695 10.2787 79.662 9.99648C79.5544 9.7008 79.5007 9.39168 79.5007 9.06912V4.53312H77.9484V2.6784H80.0047Z" fill="#F4F4F4"/>
</svg>
